<svg xmlns="http://www.w3.org/2000/svg" viewBox="0 0 576.95 407.12"><defs><style>.cls-1{fill:#bb8545;}.cls-2{fill:#0065a5;}.cls-3{fill:#c7484b;}</style></defs><title>ricoh-vector-logo</title><path class="cls-1" d="M142.11,610.24a24.29,24.29,0,0,1,4-.33c2.72,0,4.65.65,5.93,1.83a6.68,6.68,0,0,1,2.09,5.26,7.84,7.84,0,0,1-2.11,5.69c-1.39,1.37-3.65,2.11-6.5,2.11a30.28,30.28,0,0,1-3.43-.17V610.24Zm1.89,13a15.69,15.69,0,0,0,1.91.09c4.06,0,6.24-2.26,6.24-6.21,0-3.45-1.93-5.65-5.93-5.65a10.7,10.7,0,0,0-2.22.2v11.58Z" transform="translate(-111.6 -248.17)"/><path class="cls-1" d="M166.13,619.32c0,3.89-2.72,5.59-5.24,5.59-2.82,0-5-2.09-5-5.41,0-3.5,2.33-5.56,5.21-5.56S166.13,616.13,166.13,619.32Zm-8.32.11c0,2.3,1.3,4,3.17,4s3.19-1.72,3.19-4.08c0-1.78-.89-4-3.15-4S157.8,617.45,157.8,619.43Z" transform="translate(-111.6 -248.17)"/><path class="cls-1" d="M169.15,614.15l1.41,5.34c0.28,1.17.56,2.26,0.76,3.35h0.06c0.24-1.06.59-2.19,0.93-3.32l1.72-5.37h1.61l1.63,5.26c0.39,1.26.7,2.37,0.93,3.43h0.06a31.61,31.61,0,0,1,.8-3.41l1.5-5.28h1.89l-3.39,10.52h-1.74l-1.61-5a35.06,35.06,0,0,1-.93-3.46h0a31.11,31.11,0,0,1-1,3.48l-1.69,5h-1.74l-3.17-10.52h2Z" transform="translate(-111.6 -248.17)"/><path class="cls-1" d="M184.39,617c0-1.11,0-2-.09-2.85H186l0.11,1.74h0a3.9,3.9,0,0,1,3.48-2c1.46,0,3.72.87,3.72,4.48v6.26h-1.91V618.6c0-1.69-.63-3.11-2.43-3.11a2.8,2.8,0,0,0-2.69,2.85v6.32h-1.91V617Z" transform="translate(-111.6 -248.17)"/><path class="cls-1" d="M196.45,609.24h1.91v15.43h-1.91V609.24Z" transform="translate(-111.6 -248.17)"/><path class="cls-1" d="M211.09,619.32c0,3.89-2.72,5.59-5.24,5.59-2.82,0-5-2.09-5-5.41,0-3.5,2.33-5.56,5.21-5.56S211.09,616.13,211.09,619.32Zm-8.32.11c0,2.3,1.3,4,3.17,4s3.19-1.72,3.19-4.08c0-1.78-.89-4-3.15-4S202.77,617.45,202.77,619.43Z" transform="translate(-111.6 -248.17)"/><path class="cls-1" d="M220.9,622.15a17.67,17.67,0,0,0,.15,2.52h-1.72l-0.15-1.33h-0.06a3.92,3.92,0,0,1-3.22,1.56,3,3,0,0,1-3.22-3c0-2.54,2.26-3.93,6.32-3.91v-0.22a2.15,2.15,0,0,0-2.39-2.41,5.07,5.07,0,0,0-2.76.78l-0.43-1.28a6.81,6.81,0,0,1,3.48-.91c3.22,0,4,2.2,4,4.28v3.93ZM219,619.3c-2.09,0-4.45.33-4.45,2.37a1.67,1.67,0,0,0,1.78,1.82,2.66,2.66,0,0,0,2.59-1.76,2.15,2.15,0,0,0,.09-0.61V619.3Z" transform="translate(-111.6 -248.17)"/><path class="cls-1" d="M233,609.24V622c0,0.93,0,2,.09,2.72h-1.69l-0.09-1.83h-0.06a3.8,3.8,0,0,1-3.54,2.06c-2.54,0-4.52-2.15-4.52-5.35,0-3.5,2.17-5.63,4.71-5.63a3.52,3.52,0,0,1,3.17,1.59h0v-6.28H233Zm-1.89,9.19a3.37,3.37,0,0,0-.09-0.8,2.81,2.81,0,0,0-2.76-2.19c-2,0-3.15,1.74-3.15,4,0,2.13,1.06,3.89,3.11,3.89a2.9,2.9,0,0,0,2.8-2.28,3.31,3.31,0,0,0,.09-0.83v-1.83Z" transform="translate(-111.6 -248.17)"/><path class="cls-1" d="M240.24,624.67v-1.17l1.5-1.46c3.61-3.43,5.26-5.26,5.26-7.39a2.5,2.5,0,0,0-2.78-2.76,4.81,4.81,0,0,0-3,1.2l-0.61-1.35a6.26,6.26,0,0,1,4-1.43,4,4,0,0,1,4.32,4.11c0,2.61-1.89,4.71-4.87,7.58l-1.11,1v0h6.32v1.59h-9Z" transform="translate(-111.6 -248.17)"/><path class="cls-1" d="M260.8,617.45c0,4.8-1.8,7.45-4.91,7.45-2.76,0-4.65-2.59-4.69-7.26s2.06-7.34,4.93-7.34S260.8,613,260.8,617.45Zm-7.67.22c0,3.67,1.13,5.76,2.87,5.76,1.93,0,2.87-2.28,2.87-5.89s-0.87-5.76-2.87-5.76C254.35,611.78,253.13,613.82,253.13,617.67Z" transform="translate(-111.6 -248.17)"/><path class="cls-1" d="M271.95,617.45c0,4.8-1.8,7.45-4.91,7.45-2.76,0-4.65-2.59-4.69-7.26s2.06-7.34,4.93-7.34S271.95,613,271.95,617.45Zm-7.67.22c0,3.67,1.13,5.76,2.87,5.76,1.93,0,2.87-2.28,2.87-5.89s-0.87-5.76-2.87-5.76C265.5,611.78,264.28,613.82,264.28,617.67Z" transform="translate(-111.6 -248.17)"/><path class="cls-1" d="M273.06,627.36a32.08,32.08,0,0,0,1.3-5.21l2.13-.22a27.73,27.73,0,0,1-2.09,5.28Z" transform="translate(-111.6 -248.17)"/><path class="cls-1" d="M287.6,617.45c0,4.8-1.8,7.45-4.91,7.45-2.76,0-4.65-2.59-4.69-7.26s2.06-7.34,4.93-7.34S287.6,613,287.6,617.45Zm-7.67.22c0,3.67,1.13,5.76,2.87,5.76,1.93,0,2.87-2.28,2.87-5.89s-0.87-5.76-2.87-5.76C281.14,611.78,279.93,613.82,279.93,617.67Z" transform="translate(-111.6 -248.17)"/><path class="cls-1" d="M298.75,617.45c0,4.8-1.8,7.45-4.91,7.45-2.76,0-4.65-2.59-4.69-7.26s2.06-7.34,4.93-7.34S298.75,613,298.75,617.45Zm-7.67.22c0,3.67,1.13,5.76,2.87,5.76,1.93,0,2.87-2.28,2.87-5.89s-0.87-5.76-2.87-5.76C292.29,611.78,291.08,613.82,291.08,617.67Z" transform="translate(-111.6 -248.17)"/><path class="cls-1" d="M309.9,617.45c0,4.8-1.8,7.45-4.91,7.45-2.76,0-4.65-2.59-4.69-7.26s2.06-7.34,4.93-7.34S309.9,613,309.9,617.45Zm-7.67.22c0,3.67,1.13,5.76,2.87,5.76,1.93,0,2.87-2.28,2.87-5.89s-0.87-5.76-2.87-5.76C303.44,611.78,302.23,613.82,302.23,617.67Z" transform="translate(-111.6 -248.17)"/><path class="cls-1" d="M317.83,613.11v5.11h4.91v1.3h-4.91v5.15h-1.39v-5.15h-4.91v-1.3h4.91v-5.11h1.39Z" transform="translate(-111.6 -248.17)"/><path class="cls-1" d="M329.81,609.24h1.89v6.61h0a3.9,3.9,0,0,1,3.58-1.91c2.63,0,4.46,2.17,4.46,5.35,0,3.76-2.39,5.63-4.74,5.63a3.82,3.82,0,0,1-3.54-2h0l-0.11,1.72h-1.63c0-.72.09-1.78,0.09-2.72V609.24Zm1.89,11.21a2.44,2.44,0,0,0,.09.7,2.93,2.93,0,0,0,2.87,2.24c2,0,3.19-1.63,3.19-4,0-2.11-1.09-3.91-3.15-3.91a3.07,3.07,0,0,0-2.89,2.35,3,3,0,0,0-.11.8v1.87Z" transform="translate(-111.6 -248.17)"/><path class="cls-1" d="M342.17,617.43c0-1.24,0-2.3-.09-3.28h1.67l0.09,2.09h0.07a3.18,3.18,0,0,1,2.93-2.3,3.93,3.93,0,0,1,.52,0v1.8a3,3,0,0,0-.65,0,2.66,2.66,0,0,0-2.56,2.43,5.79,5.79,0,0,0-.06.89v5.61h-1.91v-7.24Z" transform="translate(-111.6 -248.17)"/><path class="cls-1" d="M356.56,622.15a17.67,17.67,0,0,0,.15,2.52H355l-0.15-1.33h-0.07a3.92,3.92,0,0,1-3.22,1.56,3,3,0,0,1-3.22-3c0-2.54,2.26-3.93,6.32-3.91v-0.22a2.15,2.15,0,0,0-2.39-2.41,5.07,5.07,0,0,0-2.76.78l-0.43-1.28a6.81,6.81,0,0,1,3.48-.91c3.22,0,4,2.2,4,4.28v3.93Zm-1.85-2.85c-2.09,0-4.45.33-4.45,2.37a1.67,1.67,0,0,0,1.78,1.82,2.65,2.65,0,0,0,2.59-1.76,2.15,2.15,0,0,0,.09-0.61V619.3Z" transform="translate(-111.6 -248.17)"/><path class="cls-1" d="M359.65,617c0-1.11,0-2-.09-2.85h1.69l0.11,1.74h0a3.9,3.9,0,0,1,3.48-2c1.46,0,3.72.87,3.72,4.48v6.26h-1.91V618.6c0-1.69-.63-3.11-2.43-3.11a2.8,2.8,0,0,0-2.69,2.85v6.32h-1.91V617Z" transform="translate(-111.6 -248.17)"/><path class="cls-1" d="M380.77,609.24V622c0,0.93,0,2,.09,2.72h-1.69l-0.09-1.83H379a3.8,3.8,0,0,1-3.54,2.06c-2.54,0-4.52-2.15-4.52-5.35,0-3.5,2.17-5.63,4.71-5.63a3.52,3.52,0,0,1,3.17,1.59h0v-6.28h1.89Zm-1.89,9.19a3.37,3.37,0,0,0-.09-0.8,2.81,2.81,0,0,0-2.76-2.19c-2,0-3.15,1.74-3.15,4,0,2.13,1.07,3.89,3.11,3.89a2.9,2.9,0,0,0,2.8-2.28,3.31,3.31,0,0,0,.09-0.83v-1.83Z" transform="translate(-111.6 -248.17)"/><path class="cls-1" d="M388.58,609.24h1.91v15.43h-1.91V609.24Z" transform="translate(-111.6 -248.17)"/><path class="cls-1" d="M403.22,619.32c0,3.89-2.72,5.59-5.24,5.59-2.82,0-5-2.09-5-5.41,0-3.5,2.33-5.56,5.21-5.56S403.22,616.13,403.22,619.32Zm-8.32.11c0,2.3,1.3,4,3.17,4s3.19-1.72,3.19-4.08c0-1.78-.89-4-3.15-4S394.9,617.45,394.9,619.43Z" transform="translate(-111.6 -248.17)"/><path class="cls-1" d="M414.63,623.12c0,2.43-.5,3.89-1.5,4.82a5.78,5.78,0,0,1-3.85,1.26,6.78,6.78,0,0,1-3.5-.87l0.48-1.48a5.73,5.73,0,0,0,3.08.85c2,0,3.39-1,3.39-3.69v-1.15h0a3.73,3.73,0,0,1-3.35,1.76c-2.61,0-4.48-2.22-4.48-5.13,0-3.56,2.32-5.56,4.76-5.56a3.51,3.51,0,0,1,3.28,1.8h0l0.07-1.59h1.7c-0.07.74-.09,1.61-0.09,2.87v6.11Zm-1.91-4.82a2.49,2.49,0,0,0-.11-0.85,2.73,2.73,0,0,0-2.67-2c-1.83,0-3.13,1.54-3.13,4,0,2.06,1.06,3.78,3.11,3.78a2.76,2.76,0,0,0,2.65-2,3.34,3.34,0,0,0,.15-1V618.3Z" transform="translate(-111.6 -248.17)"/><path class="cls-1" d="M427.3,619.32c0,3.89-2.72,5.59-5.24,5.59-2.82,0-5-2.09-5-5.41,0-3.5,2.33-5.56,5.21-5.56S427.3,616.13,427.3,619.32Zm-8.32.11c0,2.3,1.3,4,3.17,4s3.19-1.72,3.19-4.08c0-1.78-.89-4-3.15-4S419,617.45,419,619.43Z" transform="translate(-111.6 -248.17)"/><path class="cls-1" d="M429.46,622.73a5.4,5.4,0,0,0,2.54.74c1.37,0,2-.67,2-1.56s-0.54-1.39-1.93-1.91c-1.91-.7-2.8-1.72-2.8-3,0-1.7,1.39-3.09,3.63-3.09a4.89,4.89,0,0,1,2.56.65L435,616a4.07,4.07,0,0,0-2.15-.63,1.51,1.51,0,0,0-1.74,1.43c0,0.87.61,1.26,2,1.8,1.8,0.67,2.76,1.59,2.76,3.15,0,1.87-1.46,3.17-3.91,3.17a6,6,0,0,1-3-.74Z" transform="translate(-111.6 -248.17)"/><path class="cls-1" d="M445.06,611.19a1.14,1.14,0,0,1-1.22,1.17,1.12,1.12,0,0,1-1.15-1.17,1.17,1.17,0,0,1,1.2-1.2A1.15,1.15,0,0,1,445.06,611.19Zm-2.13,13.47V614.15h1.91v10.52h-1.91Z" transform="translate(-111.6 -248.17)"/><path class="cls-1" d="M448,617c0-1.11,0-2-.09-2.85h1.7l0.11,1.74h0a3.9,3.9,0,0,1,3.48-2c1.46,0,3.72.87,3.72,4.48v6.26h-1.91V618.6c0-1.69-.63-3.11-2.43-3.11a2.81,2.81,0,0,0-2.69,2.85v6.32H448V617Z" transform="translate(-111.6 -248.17)"/><path class="cls-1" d="M465.43,614.15l2.06,5.89c0.35,1,.63,1.85.85,2.72h0.07c0.24-.87.54-1.74,0.89-2.72l2-5.89h2l-4.13,10.52h-1.83l-4-10.52h2Z" transform="translate(-111.6 -248.17)"/><path class="cls-1" d="M476,619.76a3.36,3.36,0,0,0,3.61,3.65,6.83,6.83,0,0,0,2.91-.54l0.35,1.37a8.57,8.57,0,0,1-3.52.67c-3.24,0-5.17-2.15-5.17-5.32s1.87-5.65,4.93-5.65c3.46,0,4.35,3,4.35,4.93a4.63,4.63,0,0,1-.07.89H476Zm5.61-1.37c0-1.2-.5-3.09-2.65-3.09-2,0-2.78,1.76-2.93,3.09h5.58Z" transform="translate(-111.6 -248.17)"/><path class="cls-1" d="M493.31,624.3a7.41,7.41,0,0,1-3,.61,5,5,0,0,1-5.24-5.37,5.36,5.36,0,0,1,5.65-5.61,6,6,0,0,1,2.65.57L492.92,616a4.68,4.68,0,0,0-2.22-.5,3.65,3.65,0,0,0-3.72,4,3.61,3.61,0,0,0,3.65,3.93,5.47,5.47,0,0,0,2.35-.5Z" transform="translate(-111.6 -248.17)"/><path class="cls-1" d="M498.13,611.63v2.52h2.74v1.46h-2.74v5.67c0,1.3.37,2,1.43,2a3.57,3.57,0,0,0,1.11-.13l0.09,1.46a5.22,5.22,0,0,1-1.69.26,2.73,2.73,0,0,1-2.06-.8,4.11,4.11,0,0,1-.74-2.76v-5.74h-1.63v-1.46h1.63v-2Z" transform="translate(-111.6 -248.17)"/><path class="cls-1" d="M512.41,619.32c0,3.89-2.72,5.59-5.24,5.59-2.83,0-5-2.09-5-5.41,0-3.5,2.32-5.56,5.21-5.56S512.41,616.13,512.41,619.32Zm-8.32.11c0,2.3,1.3,4,3.17,4s3.19-1.72,3.19-4.08c0-1.78-.89-4-3.15-4S504.09,617.45,504.09,619.43Z" transform="translate(-111.6 -248.17)"/><path class="cls-1" d="M514.83,617.43c0-1.24,0-2.3-.09-3.28h1.67l0.09,2.09h0.06a3.18,3.18,0,0,1,2.93-2.3,3.93,3.93,0,0,1,.52,0v1.8a3,3,0,0,0-.65,0,2.66,2.66,0,0,0-2.56,2.43,5.66,5.66,0,0,0-.07.89v5.61h-1.91v-7.24Z" transform="translate(-111.6 -248.17)"/><path class="cls-1" d="M526.74,624.67v-9.06h-1.46v-1.46h1.46v-0.5A5,5,0,0,1,528,610a3.66,3.66,0,0,1,2.56-1,4.36,4.36,0,0,1,1.63.3l-0.26,1.48a2.79,2.79,0,0,0-1.22-.24c-1.63,0-2,1.41-2,3v0.57h2.54v1.46h-2.54v9.06h-1.89Z" transform="translate(-111.6 -248.17)"/><path class="cls-1" d="M542.12,619.32c0,3.89-2.72,5.59-5.24,5.59-2.82,0-5-2.09-5-5.41,0-3.5,2.33-5.56,5.21-5.56S542.12,616.13,542.12,619.32Zm-8.32.11c0,2.3,1.3,4,3.17,4s3.19-1.72,3.19-4.08c0-1.78-.89-4-3.15-4S533.8,617.45,533.8,619.43Z" transform="translate(-111.6 -248.17)"/><path class="cls-1" d="M544.54,617.43c0-1.24,0-2.3-.09-3.28h1.67l0.09,2.09h0.07a3.18,3.18,0,0,1,2.93-2.3,3.93,3.93,0,0,1,.52,0v1.8a3,3,0,0,0-.65,0,2.66,2.66,0,0,0-2.56,2.43,5.79,5.79,0,0,0-.07.89v5.61h-1.91v-7.24Z" transform="translate(-111.6 -248.17)"/><path class="cls-1" d="M551.73,617c0-1.11,0-2-.09-2.85h1.67l0.09,1.72h0.06a3.63,3.63,0,0,1,3.32-1.93,3.1,3.1,0,0,1,3,2.11h0a4.16,4.16,0,0,1,1.2-1.37,3.53,3.53,0,0,1,2.3-.74c1.41,0,3.48.91,3.48,4.56v6.17H564.9v-5.93c0-2-.76-3.24-2.28-3.24a2.51,2.51,0,0,0-2.28,1.72,3.27,3.27,0,0,0-.15,1v6.5h-1.87v-6.3c0-1.67-.74-2.87-2.19-2.87a2.64,2.64,0,0,0-2.37,1.91,2.55,2.55,0,0,0-.15.93v6.32h-1.87V617Z" transform="translate(-111.6 -248.17)"/><path class="cls-1" d="M577.25,622.15a17.67,17.67,0,0,0,.15,2.52h-1.72l-0.15-1.33h-0.06a3.92,3.92,0,0,1-3.22,1.56,3,3,0,0,1-3.22-3c0-2.54,2.26-3.93,6.32-3.91v-0.22a2.15,2.15,0,0,0-2.39-2.41,5.07,5.07,0,0,0-2.76.78l-0.43-1.28a6.81,6.81,0,0,1,3.48-.91c3.22,0,4,2.2,4,4.28v3.93Zm-1.85-2.85c-2.09,0-4.45.33-4.45,2.37a1.67,1.67,0,0,0,1.78,1.82,2.66,2.66,0,0,0,2.59-1.76,2.14,2.14,0,0,0,.09-0.61V619.3Z" transform="translate(-111.6 -248.17)"/><path class="cls-1" d="M582.55,611.63v2.52h2.74v1.46h-2.74v5.67c0,1.3.37,2,1.43,2a3.57,3.57,0,0,0,1.11-.13l0.09,1.46a5.22,5.22,0,0,1-1.69.26,2.73,2.73,0,0,1-2.06-.8,4.11,4.11,0,0,1-.74-2.76v-5.74h-1.63v-1.46h1.63v-2Z" transform="translate(-111.6 -248.17)"/><path class="cls-1" d="M592.24,624.67v-9.06h-1.46v-1.46h1.46v-0.5a5,5,0,0,1,1.22-3.67,3.66,3.66,0,0,1,2.56-1,4.36,4.36,0,0,1,1.63.3l-0.26,1.48a2.79,2.79,0,0,0-1.22-.24c-1.63,0-2,1.41-2,3v0.57h2.54v1.46h-2.54v9.06h-1.89Z" transform="translate(-111.6 -248.17)"/><path class="cls-1" d="M607.63,619.32c0,3.89-2.72,5.59-5.24,5.59-2.83,0-5-2.09-5-5.41,0-3.5,2.32-5.56,5.21-5.56S607.63,616.13,607.63,619.32Zm-8.32.11c0,2.3,1.3,4,3.17,4s3.19-1.72,3.19-4.08c0-1.78-.89-4-3.15-4S599.31,617.45,599.31,619.43Z" transform="translate(-111.6 -248.17)"/><path class="cls-1" d="M610,617.43c0-1.24,0-2.3-.09-3.28h1.67l0.09,2.09h0.06a3.18,3.18,0,0,1,2.93-2.3,3.93,3.93,0,0,1,.52,0v1.8a3,3,0,0,0-.65,0,2.66,2.66,0,0,0-2.56,2.43,5.66,5.66,0,0,0-.07.89v5.61H610v-7.24Z" transform="translate(-111.6 -248.17)"/><path class="cls-1" d="M622,624.67v-9.06H620.5v-1.46H622v-0.5a5,5,0,0,1,1.22-3.67,3.66,3.66,0,0,1,2.56-1,4.36,4.36,0,0,1,1.63.3l-0.26,1.48a2.79,2.79,0,0,0-1.22-.24c-1.63,0-2,1.41-2,3v0.57h2.54v1.46h-2.54v9.06H622Z" transform="translate(-111.6 -248.17)"/><path class="cls-1" d="M628.1,617.43c0-1.24,0-2.3-.09-3.28h1.67l0.09,2.09h0.06a3.18,3.18,0,0,1,2.93-2.3,3.93,3.93,0,0,1,.52,0v1.8a3,3,0,0,0-.65,0,2.66,2.66,0,0,0-2.56,2.43,5.67,5.67,0,0,0-.07.89v5.61H628.1v-7.24Z" transform="translate(-111.6 -248.17)"/><path class="cls-1" d="M636.06,619.76a3.36,3.36,0,0,0,3.61,3.65,6.83,6.83,0,0,0,2.91-.54l0.35,1.37a8.58,8.58,0,0,1-3.52.67c-3.24,0-5.17-2.15-5.17-5.32s1.87-5.65,4.93-5.65c3.46,0,4.35,3,4.35,4.93a4.72,4.72,0,0,1-.06.89h-7.39Zm5.61-1.37c0-1.2-.5-3.09-2.65-3.09-2,0-2.78,1.76-2.93,3.09h5.58Z" transform="translate(-111.6 -248.17)"/><path class="cls-1" d="M646.95,619.76a3.36,3.36,0,0,0,3.61,3.65,6.83,6.83,0,0,0,2.91-.54l0.35,1.37a8.58,8.58,0,0,1-3.52.67c-3.24,0-5.17-2.15-5.17-5.32s1.87-5.65,4.93-5.65c3.45,0,4.35,3,4.35,4.93a4.72,4.72,0,0,1-.06.89h-7.39Zm5.61-1.37c0-1.2-.5-3.09-2.65-3.09-2,0-2.78,1.76-2.93,3.09h5.58Z" transform="translate(-111.6 -248.17)"/><path class="cls-1" d="M656.06,623.54a1.3,1.3,0,0,1,1.3-1.37,1.27,1.27,0,0,1,1.28,1.37,1.29,1.29,0,0,1-1.33,1.37A1.28,1.28,0,0,1,656.06,623.54Z" transform="translate(-111.6 -248.17)"/><path class="cls-2" d="M253.49,635.32h3.3v6.08h0a3.56,3.56,0,0,1,1.3-1.11,3.77,3.77,0,0,1,1.72-.41c2.11,0,3.72,1.46,3.72,4.67v6.19h-3.3V644.9c0-1.39-.48-2.35-1.72-2.35a1.75,1.75,0,0,0-1.65,1.17,1.91,1.91,0,0,0-.11.72v6.3h-3.3V635.32Z" transform="translate(-111.6 -248.17)"/><path class="cls-2" d="M272,637.25v2.87h2.37v2.43H272v3.85c0,1.28.33,1.87,1.3,1.87a4.11,4.11,0,0,0,1-.09l0,2.5a6.94,6.94,0,0,1-2.13.28,3.53,3.53,0,0,1-2.5-.91,4.4,4.4,0,0,1-.91-3.15v-4.35h-1.41v-2.43h1.41v-2Z" transform="translate(-111.6 -248.17)"/><path class="cls-2" d="M282.11,637.25v2.87h2.37v2.43h-2.37v3.85c0,1.28.33,1.87,1.3,1.87a4.11,4.11,0,0,0,1-.09l0,2.5a6.94,6.94,0,0,1-2.13.28,3.53,3.53,0,0,1-2.5-.91,4.4,4.4,0,0,1-.91-3.15v-4.35h-1.41v-2.43h1.41v-2Z" transform="translate(-111.6 -248.17)"/><path class="cls-2" d="M288.57,643.69c0-1.39,0-2.56-.09-3.56h2.87l0.15,1.48h0a4.13,4.13,0,0,1,3.54-1.72c2.32,0,4.41,2,4.41,5.41,0,3.87-2.46,5.69-4.82,5.69a3.3,3.3,0,0,1-2.76-1.22h0V655h-3.3V643.69Zm3.3,2.5a3.43,3.43,0,0,0,.06.7,2,2,0,0,0,1.93,1.56c1.43,0,2.28-1.19,2.28-3s-0.76-3-2.24-3a2.07,2.07,0,0,0-2,1.67,2.56,2.56,0,0,0-.06.59v1.46Z" transform="translate(-111.6 -248.17)"/><path class="cls-2" d="M303.52,642a1.93,1.93,0,1,1,1.91,2A1.89,1.89,0,0,1,303.52,642Zm0,7a1.93,1.93,0,1,1,1.91,2A1.89,1.89,0,0,1,303.52,649Z" transform="translate(-111.6 -248.17)"/><path class="cls-2" d="M310.58,651.59l4.65-15.75h2.19l-4.65,15.75h-2.19Z" transform="translate(-111.6 -248.17)"/><path class="cls-2" d="M320,651.59l4.65-15.75h2.19l-4.65,15.75H320Z" transform="translate(-111.6 -248.17)"/><path class="cls-2" d="M332.58,640.12l0.87,4.37c0.2,1.09.41,2.26,0.59,3.48h0.07c0.2-1.22.52-2.41,0.76-3.46l1.13-4.39h2.61l1.07,4.24c0.3,1.22.59,2.39,0.78,3.61h0c0.15-1.2.37-2.41,0.63-3.63l0.89-4.21h3.24L342,650.75H338.9l-1-3.72a31.74,31.74,0,0,1-.7-3.32h0a28.44,28.44,0,0,1-.67,3.3l-1.06,3.74h-3.11l-3.11-10.62h3.37Z" transform="translate(-111.6 -248.17)"/><path class="cls-2" d="M351.66,640.12l0.87,4.37c0.2,1.09.41,2.26,0.59,3.48h0.07c0.2-1.22.52-2.41,0.76-3.46l1.13-4.39h2.61l1.07,4.24c0.3,1.22.59,2.39,0.78,3.61h0c0.15-1.2.37-2.41,0.63-3.63l0.89-4.21h3.24l-3.26,10.63H358L357,647a31.74,31.74,0,0,1-.7-3.32h0a28.4,28.4,0,0,1-.67,3.3l-1.06,3.74H351.4l-3.11-10.62h3.37Z" transform="translate(-111.6 -248.17)"/><path class="cls-2" d="M370.74,640.12l0.87,4.37c0.2,1.09.41,2.26,0.59,3.48h0.07c0.2-1.22.52-2.41,0.76-3.46l1.13-4.39h2.61l1.06,4.24c0.3,1.22.59,2.39,0.78,3.61h0c0.15-1.2.37-2.41,0.63-3.63l0.89-4.21h3.24l-3.26,10.63h-3.09l-1-3.72a31.24,31.24,0,0,1-.7-3.32h0a28.43,28.43,0,0,1-.67,3.3l-1.07,3.74h-3.11l-3.11-10.62h3.37Z" transform="translate(-111.6 -248.17)"/><path class="cls-2" d="M385.85,649a1.95,1.95,0,1,1,1.91,2A1.9,1.9,0,0,1,385.85,649Z" transform="translate(-111.6 -248.17)"/><path class="cls-2" d="M393.91,635.32h3.3v15.43h-3.3V635.32Z" transform="translate(-111.6 -248.17)"/><path class="cls-2" d="M412.56,645.31A5.33,5.33,0,0,1,407,651a5.2,5.2,0,0,1-5.5-5.48,5.32,5.32,0,0,1,5.69-5.65A5.17,5.17,0,0,1,412.56,645.31Zm-7.69.11c0,1.83.76,3.19,2.17,3.19s2.11-1.28,2.11-3.21c0-1.56-.61-3.17-2.11-3.17S404.86,643.86,404.86,645.42Z" transform="translate(-111.6 -248.17)"/><path class="cls-2" d="M426.9,649.2c0,2-.41,3.72-1.63,4.78a6.45,6.45,0,0,1-4.3,1.3,8.5,8.5,0,0,1-3.82-.8L417.8,652a6.46,6.46,0,0,0,3.09.8,2.53,2.53,0,0,0,2.76-2.8v-0.67h0a3.44,3.44,0,0,1-2.87,1.37c-2.63,0-4.5-2.13-4.5-5.17,0-3.43,2.2-5.61,4.82-5.61A3.17,3.17,0,0,1,424,641.4h0l0.11-1.28H427c0,0.7-.09,1.59-0.09,3.17v5.91Zm-3.3-4.76a2.85,2.85,0,0,0-.07-0.61,1.81,1.81,0,0,0-1.78-1.46c-1.22,0-2.17,1.09-2.17,3,0,1.59.78,2.82,2.15,2.82a1.81,1.81,0,0,0,1.76-1.33,3,3,0,0,0,.11-0.89v-1.56Z" transform="translate(-111.6 -248.17)"/><path class="cls-2" d="M442.22,645.31a5.33,5.33,0,0,1-5.61,5.67,5.21,5.21,0,0,1-5.5-5.48,5.32,5.32,0,0,1,5.69-5.65A5.17,5.17,0,0,1,442.22,645.31Zm-7.69.11c0,1.83.76,3.19,2.17,3.19s2.11-1.28,2.11-3.21c0-1.56-.61-3.17-2.11-3.17S434.53,643.86,434.53,645.42Z" transform="translate(-111.6 -248.17)"/><path class="cls-2" d="M449,646.49c0.09,1.37,1.46,2,3,2a8.74,8.74,0,0,0,2.93-.46l0.43,2.24a10.05,10.05,0,0,1-3.85.67c-3.61,0-5.67-2.09-5.67-5.41,0-2.69,1.67-5.67,5.37-5.67,3.43,0,4.74,2.67,4.74,5.3a7.78,7.78,0,0,1-.11,1.3H449Zm3.89-2.26a1.92,1.92,0,0,0-1.87-2.15,2.18,2.18,0,0,0-2,2.15h3.91Z" transform="translate(-111.6 -248.17)"/><path class="cls-2" d="M460.16,643.69c0-1.39,0-2.56-.09-3.56h2.87l0.15,1.48h0a4.13,4.13,0,0,1,3.54-1.72c2.33,0,4.41,2,4.41,5.41,0,3.87-2.45,5.69-4.82,5.69a3.3,3.3,0,0,1-2.76-1.22h0V655h-3.3V643.69Zm3.3,2.5a3.46,3.46,0,0,0,.07.7,2,2,0,0,0,1.93,1.56c1.43,0,2.28-1.19,2.28-3s-0.76-3-2.24-3a2.07,2.07,0,0,0-2,1.67,2.58,2.58,0,0,0-.07.59v1.46Z" transform="translate(-111.6 -248.17)"/><path class="cls-2" d="M475.3,647.88a6.46,6.46,0,0,0,2.85.78c1,0,1.41-.33,1.41-0.87s-0.33-.83-1.54-1.24c-2.22-.74-3.06-1.93-3-3.19,0-2,1.7-3.5,4.32-3.5a7,7,0,0,1,3,.63l-0.56,2.28a5.31,5.31,0,0,0-2.3-.61c-0.8,0-1.26.33-1.26,0.85s0.41,0.78,1.72,1.24c2,0.7,2.85,1.74,2.87,3.28,0,2-1.54,3.46-4.58,3.46a7.51,7.51,0,0,1-3.43-.76Z" transform="translate(-111.6 -248.17)"/><path class="cls-2" d="M486.48,649a1.95,1.95,0,1,1,1.91,2A1.9,1.9,0,0,1,486.48,649Z" transform="translate(-111.6 -248.17)"/><path class="cls-2" d="M502.51,650.46a7.56,7.56,0,0,1-3,.5c-3.43,0-5.63-2.11-5.63-5.43,0-3.11,2.13-5.65,6.08-5.65a7.66,7.66,0,0,1,2.52.41L502,642.75a4.51,4.51,0,0,0-1.85-.33,3,3,0,0,0,.07,6,4.67,4.67,0,0,0,1.89-.35Z" transform="translate(-111.6 -248.17)"/><path class="cls-2" d="M516.77,645.31a5.33,5.33,0,0,1-5.61,5.67,5.21,5.21,0,0,1-5.5-5.48,5.32,5.32,0,0,1,5.69-5.65A5.17,5.17,0,0,1,516.77,645.31Zm-7.69.11c0,1.83.76,3.19,2.17,3.19s2.11-1.28,2.11-3.21c0-1.56-.61-3.17-2.11-3.17S509.08,643.86,509.08,645.42Z" transform="translate(-111.6 -248.17)"/><path class="cls-2" d="M521,643.51c0-1.33,0-2.43-.09-3.39h2.8l0.13,1.43h0.07a3.68,3.68,0,0,1,3.22-1.69,3,3,0,0,1,2.91,1.83h0a4.6,4.6,0,0,1,1.39-1.3,4,4,0,0,1,2-.52c2,0,3.58,1.43,3.58,4.63v6.26h-3.22V645c0-1.54-.5-2.43-1.56-2.43a1.64,1.64,0,0,0-1.54,1.15,3.45,3.45,0,0,0-.11.85v6.21h-3.22v-6c0-1.33-.48-2.24-1.54-2.24a1.69,1.69,0,0,0-1.54,1.17,2.22,2.22,0,0,0-.13.85v6.19H521v-7.24Z" transform="translate(-111.6 -248.17)"/><path class="cls-2" d="M540.88,651.59l4.65-15.75h2.2l-4.65,15.75h-2.19Z" transform="translate(-111.6 -248.17)"/><path class="cls-3" d="M336.09,300.23c0,20.29,15,35.27,40.13,35.27a70.52,70.52,0,0,0,30.92-6.5l9.39,12.83c-13,6.87-25.49,10.46-44.7,10.46-40,0-69.5-19.29-69.5-52h0c0-32.75,29.45-52,69.5-52,19.21,0,30.25,2.81,43.78,8.61L406,271.55c-10.24-5.46-19.16-6.57-29.75-6.57-25.1,0-40.13,14.94-40.13,35.24" transform="translate(-111.6 -248.17)"/><path class="cls-3" d="M488.93,248.17c-38.79,0-66.75,19.3-66.75,52.06s28,52.06,66.75,52.06,66.76-19.29,66.76-52.06S527.72,248.17,488.93,248.17Zm0,87.92c-21.33,0-33.11-16-33.11-35.88s11.78-35.87,33.11-35.87,33.11,16,33.11,35.87S510.26,336.09,488.93,336.09Z" transform="translate(-111.6 -248.17)"/><polygon class="cls-3" points="544.91 59.6 544.91 101.49 576.95 101.49 576.95 2.62 544.91 2.62 544.91 40.31 495.92 40.31 495.92 2.62 463.94 2.62 463.94 101.49 495.92 101.49 495.92 59.6 544.91 59.6"/><rect class="cls-3" x="137.65" y="2.62" width="33.75" height="98.87"/><path class="cls-3" d="M152.44,296v9.45a251.25,251.25,0,0,1,43.92,44.16h37.78c-13.14-15.44-33.3-33.79-48.16-43,17.44-.73,36.87-7.78,36.87-27.79,0-25.69-27.45-30.38-55.19-30.38-22.66,0-43.56,1-56.05,2.07v99.12h31.48V265.44a199.55,199.55,0,0,1,24.72-1.31c16.23,0,24.43,5.35,24.43,14.72C192.24,286.83,188.84,296.39,152.44,296Z" transform="translate(-111.6 -248.17)"/></svg>